<svg xmlns="http://www.w3.org/2000/svg" xmlns:v="https://svgstorm.com"
viewBox = "0 0 1355 738"
width="1355"
height="738">
<g fill="None" fill-opacity="0.0" stroke="#1C1E25" stroke-opacity="1.00" stroke-width="0.3"><path d="
M 0.00 738.00 
L 1355.00 738.00
L 1355.00 0.00
L 0.00 0.00
L 0.00 738.00
M 572.00 268.00 
C 586.12 312.06 612.33 352.47 628.00 396.00
C 629.25 398.29 631.89 401.95 634.00 403.00
C 644.07 380.78 653.36 355.65 665.00 336.00
C 673.44 323.18 679.95 308.28 688.00 295.00
C 696.49 281.00 712.51 267.51 728.00 263.00
C 730.92 262.15 734.05 261.86 737.00 261.00
C 740.04 259.81 742.04 258.36 746.00 258.00
C 750.49 257.59 754.51 257.17 759.00 257.00
C 765.54 256.75 771.68 257.29 778.00 258.00
C 782.61 258.52 786.99 259.61 791.00 261.00
C 799.67 264.01 806.11 267.86 813.75 273.25 C 821.38 278.65 824.00 287.13 829.00 294.00
C 831.84 296.81 849.47 298.09 851.00 294.00
C 850.25 280.46 834.89 262.55 824.00 255.00
C 815.86 249.36 805.42 244.63 796.00 242.00
C 792.07 240.90 788.03 239.85 784.00 239.00
C 774.88 237.08 764.55 238.00 755.00 238.00
C 754.50 238.00 753.42 237.82 753.00 238.00
C 745.17 241.33 735.29 241.34 727.00 245.00
C 715.72 249.98 706.36 256.60 698.00 266.00
C 697.59 266.87 697.52 268.05 697.00 269.00
C 693.60 275.20 686.78 279.08 683.23 285.23 C 679.68 291.38 674.27 297.55 670.00 303.00
C 669.09 304.45 667.82 305.76 667.00 307.00
C 664.95 311.10 663.31 315.96 660.00 319.00
C 660.00 313.67 660.00 308.33 660.00 303.00
C 660.00 259.86 705.71 219.00 748.00 219.00
C 750.00 219.00 752.00 219.00 754.00 219.00
C 755.67 219.00 757.33 219.00 759.00 219.00
C 763.43 218.53 768.65 218.59 773.00 219.00
C 775.30 219.00 777.71 218.80 780.00 219.00
C 786.01 219.51 792.22 221.41 798.00 223.00
C 805.08 224.95 812.29 226.79 819.00 230.00
C 849.19 244.44 872.71 275.39 875.00 309.00
C 875.16 311.32 874.88 313.68 875.00 316.00
C 865.67 316.00 856.33 316.00 847.00 316.00
C 842.33 316.00 837.67 316.00 833.00 316.00
C 828.56 316.00 817.04 317.89 814.00 315.00
C 810.41 311.58 811.91 302.01 808.23 297.77 C 804.55 293.53 801.82 288.24 797.00 285.00
C 789.81 280.17 780.65 277.33 772.00 277.00
C 767.02 276.81 761.99 277.00 757.00 277.00
C 755.34 277.00 753.66 277.04 752.00 277.00
C 749.02 277.38 744.22 278.93 741.00 280.00
C 731.46 284.77 720.45 291.06 712.75 299.75 C 705.05 308.45 699.63 318.90 693.00 328.00
C 685.10 342.33 679.42 357.49 672.00 372.00
C 667.27 386.90 659.15 407.11 650.00 421.00
C 642.73 432.04 639.53 447.74 631.00 457.00
C 604.00 393.75 574.69 330.53 548.00 267.00
C 544.08 260.26 539.98 256.19 538.03 246.98 C 536.07 237.76 522.75 239.77 515.00 240.00
C 523.18 264.69 537.64 289.48 545.00 313.00
C 545.17 313.33 545.74 313.75 546.00 314.00
C 555.07 322.69 555.54 339.09 562.31 349.69 C 569.07 360.30 572.55 374.47 578.32 385.68 C 584.10 396.89 589.26 410.28 593.00 421.00
C 603.83 442.18 612.17 464.30 622.00 486.00
C 625.76 492.40 633.03 502.06 637.92 492.92 C 642.82 483.79 644.15 479.20 647.92 470.92 C 651.70 462.65 654.78 456.90 657.92 448.92 C 661.07 440.95 665.07 435.06 669.00 428.00
C 673.92 415.00 679.86 398.46 688.00 387.00
C 692.31 380.93 700.46 392.71 707.00 394.00
C 697.85 418.53 685.24 441.82 675.00 466.00
C 672.95 472.77 669.22 481.84 665.23 489.23 C 661.24 496.61 659.23 506.50 654.00 513.00
C 653.98 513.50 654.00 514.00 654.00 514.00
C 651.13 526.46 635.79 516.62 626.00 520.00 C 616.21 523.38 607.40 515.00 605.23 505.77 C 603.06 496.54 596.60 490.21 595.00 481.00
C 594.92 480.51 595.17 479.43 595.00 479.00
C 576.91 432.97 554.58 388.37 535.00 343.00
C 512.11 304.45 499.05 259.37 479.00 219.00
C 488.15 217.45 496.21 217.66 506.00 218.00 C 515.79 218.34 524.72 217.05 535.00 218.00 C 545.28 218.95 550.46 213.78 554.92 227.08 C 559.38 240.37 567.78 254.47 572.00 268.00
M 798.00 347.00 
C 820.07 354.55 837.22 360.73 854.75 378.25 C 872.28 395.76 876.22 421.57 874.00 446.00
C 873.36 452.98 872.75 458.30 869.00 464.00
C 866.74 467.44 865.27 471.45 863.00 475.00
C 859.06 484.45 851.24 493.16 841.25 500.25 C 831.26 507.34 820.12 511.42 807.77 515.77 C 795.42 520.12 777.21 519.96 763.00 520.00 C 748.79 520.04 735.03 516.52 721.78 512.22 C 708.52 507.93 701.95 503.09 689.75 495.25 C 677.56 487.40 680.78 475.08 689.00 464.00
C 715.50 495.03 757.05 503.77 796.00 497.00
C 824.08 489.61 851.01 469.93 854.00 439.00
C 857.10 406.96 838.54 386.13 812.00 373.00
C 801.08 367.60 788.98 365.25 777.33 361.67 C 765.67 358.09 752.47 356.21 740.98 352.02 C 729.48 347.84 722.11 342.74 712.75 334.25 C 703.40 325.76 714.77 312.42 723.00 307.00
C 730.13 339.91 772.99 336.62 798.00 347.00
M 797.00 388.00 
C 809.08 391.52 824.56 401.56 829.00 414.00
C 829.09 414.25 829.83 414.67 830.00 415.00
C 835.89 420.08 834.62 432.45 833.00 439.00
C 827.75 460.20 810.92 475.87 789.00 479.00
C 777.97 482.21 767.20 482.16 756.00 480.00
C 752.42 479.86 749.49 479.39 746.00 479.00
C 737.23 478.02 729.74 474.76 722.30 469.70 C 714.87 464.63 711.50 461.71 704.75 454.25 C 698.00 446.78 699.13 441.54 703.31 431.31 C 707.48 421.07 714.22 419.75 716.93 430.07 C 719.63 440.39 725.03 442.76 731.25 448.75 C 737.47 454.74 746.51 458.09 754.00 460.00
C 761.82 461.32 770.84 461.65 779.00 461.00
C 788.27 459.21 803.20 453.00 809.00 444.00
C 823.27 412.05 781.73 401.63 758.98 397.02 C 736.22 392.42 705.84 383.08 687.00 367.00
C 689.89 360.59 693.83 354.64 696.00 348.00
C 724.19 373.27 763.75 375.00 797.00 388.00
M 1302.00 661.00 
C 1304.12 671.54 1313.19 681.30 1324.00 683.00
C 1316.14 688.66 1303.15 694.62 1302.00 707.00
C 1297.41 697.42 1287.58 687.59 1278.00 683.00
C 1290.36 682.47 1296.68 668.81 1302.00 661.00 Z"/>
</g>
<g fill="None" fill-opacity="0.0" stroke="#3B192E" stroke-opacity="1.00" stroke-width="0.3"><path d="
M 535.00 343.00 
C 532.11 336.30 528.30 329.89 526.00 323.00
C 524.41 319.52 522.38 315.83 521.00 312.00
C 517.38 301.95 511.81 291.90 508.08 281.92 C 504.34 271.95 497.44 262.41 494.70 252.30 C 491.95 242.20 482.45 232.41 482.00 222.00
C 481.99 221.68 480.11 220.00 481.00 219.00
C 491.14 220.32 506.37 217.24 516.00 219.00 C 525.63 220.76 542.52 215.05 549.74 220.26 C 556.96 225.47 555.58 237.43 560.92 244.08 C 566.27 250.72 566.26 261.73 572.00 268.00
C 567.78 254.47 559.38 240.37 554.92 227.08 C 550.46 213.78 545.28 218.95 535.00 218.00 C 524.72 217.05 515.79 218.34 506.00 218.00 C 496.21 217.66 488.15 217.45 479.00 219.00
C 499.05 259.37 512.11 304.45 535.00 343.00 Z"/>
</g>
<g fill="None" fill-opacity="0.0" stroke="#4D506C" stroke-opacity="1.00" stroke-width="0.3"><path d="
M 759.00 219.00 
C 763.67 219.00 768.33 219.00 773.00 219.00
C 768.65 218.59 763.43 218.53 759.00 219.00 Z"/>
</g>
<g fill="None" fill-opacity="0.0" stroke="#B93384" stroke-opacity="1.00" stroke-width="0.3"><path d="
M 482.00 222.00 
C 484.28 216.04 499.16 222.40 505.00 220.00 C 510.84 217.60 520.44 224.73 524.00 221.00
C 527.03 224.82 531.18 225.44 535.00 225.00
C 529.90 229.76 538.76 232.02 536.00 237.00
C 533.81 237.52 530.38 235.86 529.00 238.00
C 532.35 238.13 533.79 237.61 536.00 240.00
C 541.27 245.70 545.15 259.65 548.00 267.00
C 574.69 330.53 604.00 393.75 631.00 457.00
C 639.53 447.74 642.73 432.04 650.00 421.00
C 650.27 420.09 649.82 418.94 650.00 418.00
C 647.40 410.95 654.21 402.13 657.32 394.32 C 660.44 386.51 665.53 377.84 669.00 370.00
C 667.92 371.00 666.40 371.02 665.00 371.00
C 669.18 366.22 659.24 365.78 666.00 363.00
C 662.10 361.50 661.73 359.54 660.00 357.00
C 657.25 357.67 659.29 360.80 655.00 361.00
C 653.01 365.51 650.06 369.84 648.00 374.00
C 643.93 385.32 637.97 396.91 632.00 407.00
C 631.16 403.19 628.84 399.84 628.00 396.00
C 612.33 352.47 586.12 312.06 572.00 268.00
C 566.26 261.73 566.27 250.72 560.92 244.08 C 555.58 237.43 556.96 225.47 549.74 220.26 C 542.52 215.05 525.63 220.76 516.00 219.00 C 506.37 217.24 491.14 220.32 481.00 219.00
C 480.11 220.00 481.99 221.68 482.00 222.00 Z"/>
</g>
<g fill="None" fill-opacity="0.0" stroke="#321D3C" stroke-opacity="1.00" stroke-width="0.3"><path d="
M 660.00 303.00 
C 663.35 268.39 687.47 239.31 720.00 227.00
C 726.55 224.52 733.14 222.45 740.00 221.00
C 742.43 220.49 746.01 219.26 748.00 219.00
C 705.71 219.00 660.00 259.86 660.00 303.00 Z"/>
</g>
<g fill="None" fill-opacity="0.0" stroke="#8370B7" stroke-opacity="1.00" stroke-width="0.3"><path d="
M 740.00 221.00 
C 744.48 222.03 750.60 235.13 749.00 238.00
C 750.33 238.00 751.67 238.00 753.00 238.00
C 753.42 237.82 754.50 238.00 755.00 238.00
C 758.75 236.41 765.58 238.46 767.00 233.00
C 761.66 228.50 758.92 222.25 754.00 219.00
C 752.00 219.00 750.00 219.00 748.00 219.00
C 746.01 219.26 742.43 220.49 740.00 221.00 Z"/>
</g>
<g fill="None" fill-opacity="0.0" stroke="#7F88BC" stroke-opacity="1.00" stroke-width="0.3"><path d="
M 755.00 238.00 
C 764.55 238.00 774.88 237.08 784.00 239.00
C 793.48 236.82 784.58 227.75 784.00 223.00
C 781.28 223.63 779.59 220.93 777.00 221.00
C 777.24 219.33 779.85 220.83 780.00 219.00
C 777.71 218.80 775.30 219.00 773.00 219.00
C 768.33 219.00 763.67 219.00 759.00 219.00
C 757.33 219.00 755.67 219.00 754.00 219.00
C 758.92 222.25 761.66 228.50 767.00 233.00
C 765.58 238.46 758.75 236.41 755.00 238.00 Z"/>
</g>
<g fill="None" fill-opacity="0.0" stroke="#7FA2C5" stroke-opacity="1.00" stroke-width="0.3"><path d="
M 784.00 239.00 
C 788.03 239.85 792.07 240.90 796.00 242.00
C 798.31 241.84 802.17 237.81 805.00 241.00
C 804.39 233.57 800.24 228.49 798.00 223.00
C 792.22 221.41 786.01 219.51 780.00 219.00
C 779.85 220.83 777.24 219.33 777.00 221.00
C 779.59 220.93 781.28 223.63 784.00 223.00
C 784.58 227.75 793.48 236.82 784.00 239.00 Z"/>
</g>
<g fill="None" fill-opacity="0.0" stroke="#CD3178" stroke-opacity="1.00" stroke-width="0.3"><path d="
M 482.00 222.00 
C 482.45 232.41 491.95 242.20 494.70 252.30 C 497.44 262.41 504.34 271.95 508.08 281.92 C 511.81 291.90 517.38 301.95 521.00 312.00
C 522.80 315.64 524.65 318.95 526.00 323.00
C 528.30 329.89 532.11 336.30 535.00 343.00
C 554.58 388.37 576.91 432.97 595.00 479.00
C 596.94 482.63 598.64 485.92 600.00 490.00
C 602.47 497.41 606.84 511.14 612.00 517.00
C 618.89 522.60 635.21 514.76 643.00 518.00 C 650.79 521.24 650.56 512.55 653.00 514.00
C 653.37 514.22 654.00 514.00 654.00 514.00
C 654.00 514.00 653.98 513.50 654.00 513.00
C 654.10 510.39 655.12 508.39 656.00 506.00
C 657.32 502.42 659.30 499.19 661.00 496.00
C 662.60 491.93 664.53 488.09 666.00 484.00
C 668.49 477.08 670.21 473.71 673.77 466.77 C 677.33 459.83 663.16 456.89 662.00 453.00
C 656.42 465.21 651.24 478.58 642.00 488.00
C 641.09 489.99 638.92 496.62 637.00 498.00
C 629.88 503.13 625.83 496.62 624.00 491.00
C 623.43 489.26 622.78 487.72 622.00 486.00
C 612.17 464.30 603.83 442.18 593.00 421.00
C 588.79 412.77 584.97 404.03 581.00 396.00
C 573.93 389.88 569.28 377.57 565.03 366.98 C 560.77 356.38 553.92 345.64 550.23 334.77 C 546.54 323.90 538.52 312.87 538.00 302.00
C 539.25 302.30 539.71 303.83 541.00 304.00
C 538.79 298.87 535.77 293.38 533.70 288.31 C 531.62 283.23 528.93 276.94 526.74 272.26 C 524.56 267.58 520.87 260.39 520.07 255.93 C 519.27 251.46 510.55 242.88 513.00 239.00
C 514.57 236.51 526.00 237.89 529.00 238.00
C 530.38 235.86 533.81 237.52 536.00 237.00
C 538.76 232.02 529.90 229.76 535.00 225.00
C 531.18 225.44 527.03 224.82 524.00 221.00
C 520.44 224.73 510.84 217.60 505.00 220.00 C 499.16 222.40 484.28 216.04 482.00 222.00 Z"/>
</g>
<g fill="None" fill-opacity="0.0" stroke="#8558B0" stroke-opacity="1.00" stroke-width="0.3"><path d="
M 720.00 227.00 
C 721.96 227.56 722.23 234.44 725.30 236.70 C 728.38 238.96 729.23 242.82 727.00 245.00
C 735.29 241.34 745.17 241.33 753.00 238.00
C 751.67 238.00 750.33 238.00 749.00 238.00
C 750.60 235.13 744.48 222.03 740.00 221.00
C 733.14 222.45 726.55 224.52 720.00 227.00 Z"/>
</g>
<g fill="None" fill-opacity="0.0" stroke="#82B6CB" stroke-opacity="1.00" stroke-width="0.3"><path d="
M 796.00 242.00 
C 805.42 244.63 815.86 249.36 824.00 255.00
C 823.33 253.99 822.45 253.10 822.00 252.00
C 825.75 250.86 827.55 255.03 831.00 255.00
C 825.43 248.16 819.56 238.44 819.00 230.00
C 812.29 226.79 805.08 224.95 798.00 223.00
C 800.24 228.49 804.39 233.57 805.00 241.00
C 802.17 237.81 798.31 241.84 796.00 242.00 Z"/>
</g>
<g fill="None" fill-opacity="0.0" stroke="#89359E" stroke-opacity="1.00" stroke-width="0.3"><path d="
M 660.00 303.00 
C 660.00 308.33 660.00 313.67 660.00 319.00
C 663.31 315.96 664.95 311.10 667.00 307.00
C 669.60 301.81 671.90 295.56 677.00 292.00
C 677.24 291.68 677.00 291.00 677.00 291.00
C 679.01 281.84 691.97 272.78 698.00 266.00
C 706.36 256.60 715.72 249.98 727.00 245.00
C 729.23 242.82 728.38 238.96 725.30 236.70 C 722.23 234.44 721.96 227.56 720.00 227.00
C 687.47 239.31 663.35 268.39 660.00 303.00 Z"/>
</g>
<g fill="None" fill-opacity="0.0" stroke="#7CC6D1" stroke-opacity="1.00" stroke-width="0.3"><path d="
M 824.00 255.00 
C 834.89 262.55 850.25 280.46 851.00 294.00
C 851.02 294.34 852.89 295.99 852.00 297.00
C 844.90 295.33 832.91 300.55 829.00 294.00
C 824.00 287.13 821.38 278.65 813.75 273.25 C 806.11 267.86 799.67 264.01 791.00 261.00
C 790.63 260.58 790.93 264.07 792.00 265.00
C 795.75 266.38 799.40 268.08 803.00 270.00
C 814.12 275.94 824.62 287.63 827.00 300.00
C 830.33 300.00 833.67 300.00 837.00 300.00
C 844.45 300.00 852.85 301.68 859.00 299.00
C 867.90 301.27 865.07 315.29 874.00 315.00
C 874.47 313.12 872.94 310.07 875.00 309.00
C 872.71 275.39 849.19 244.44 819.00 230.00
C 819.56 238.44 825.43 248.16 831.00 255.00
C 827.55 255.03 825.75 250.86 822.00 252.00
C 822.45 253.10 823.33 253.99 824.00 255.00 Z"/>
</g>
<g fill="None" fill-opacity="0.0" stroke="#6E214A" stroke-opacity="1.00" stroke-width="0.3"><path d="
M 513.00 239.00 
C 519.40 241.15 530.44 235.70 536.00 240.00
C 533.79 237.61 532.35 238.13 529.00 238.00
C 526.00 237.89 514.57 236.51 513.00 239.00 Z"/>
</g>
<g fill="None" fill-opacity="0.0" stroke="#3F1C33" stroke-opacity="1.00" stroke-width="0.3"><path d="
M 541.00 304.00 
C 542.28 306.98 543.46 310.03 545.00 313.00
C 537.64 289.48 523.18 264.69 515.00 240.00
C 522.75 239.77 536.07 237.76 538.03 246.98 C 539.98 256.19 544.08 260.26 548.00 267.00
C 545.15 259.65 541.27 245.70 536.00 240.00
C 530.44 235.70 519.40 241.15 513.00 239.00
C 510.55 242.88 519.27 251.46 520.07 255.93 C 520.87 260.39 524.56 267.58 526.74 272.26 C 528.93 276.94 531.62 283.23 533.70 288.31 C 535.77 293.38 538.79 298.87 541.00 304.00 Z"/>
</g>
<g fill="None" fill-opacity="0.0" stroke="#8672B8" stroke-opacity="1.00" stroke-width="0.3"><path d="
M 746.00 258.00 
C 744.50 258.28 741.85 259.49 740.00 260.00
C 739.09 260.65 737.75 261.50 738.00 263.00
C 745.99 263.65 752.83 259.73 761.00 261.00
C 757.28 266.88 761.68 270.02 762.00 275.00
C 764.52 275.56 768.30 273.81 770.00 276.00
C 771.01 276.12 771.48 276.89 772.00 277.00
C 780.65 277.33 789.81 280.17 797.00 285.00
C 794.19 279.34 793.96 271.76 791.00 266.00
C 780.83 261.43 768.82 261.25 759.00 257.00
C 754.51 257.17 750.49 257.59 746.00 258.00 Z"/>
</g>
<g fill="None" fill-opacity="0.0" stroke="#818CBF" stroke-opacity="1.00" stroke-width="0.3"><path d="
M 797.00 285.00 
C 801.82 288.24 804.55 293.53 808.23 297.77 C 811.91 302.01 810.41 311.58 814.00 315.00
C 820.29 315.43 826.72 314.43 833.00 315.00
C 834.40 313.19 832.90 310.35 830.00 311.00
C 828.21 295.18 817.04 279.75 803.00 270.00
C 799.40 268.08 795.75 266.38 792.00 265.00
C 786.72 263.05 781.32 261.80 776.00 260.00
C 776.08 258.74 778.06 259.44 778.00 258.00
C 771.68 257.29 765.54 256.75 759.00 257.00
C 768.82 261.25 780.83 261.43 791.00 266.00
C 793.96 271.76 794.19 279.34 797.00 285.00 Z"/>
</g>
<g fill="None" fill-opacity="0.0" stroke="#3F3050" stroke-opacity="1.00" stroke-width="0.3"><path d="
M 737.00 261.00 
C 738.03 260.70 738.93 260.30 740.00 260.00
C 741.85 259.49 744.50 258.28 746.00 258.00
C 742.04 258.36 740.04 259.81 737.00 261.00 Z"/>
</g>
<g fill="None" fill-opacity="0.0" stroke="#87A6C5" stroke-opacity="1.00" stroke-width="0.3"><path d="
M 792.00 265.00 
C 790.93 264.07 790.63 260.58 791.00 261.00
C 786.99 259.61 782.61 258.52 778.00 258.00
C 778.06 259.44 776.08 258.74 776.00 260.00
C 781.32 261.80 786.72 263.05 792.00 265.00 Z"/>
</g>
<g fill="None" fill-opacity="0.0" stroke="#8C56B0" stroke-opacity="1.00" stroke-width="0.3"><path d="
M 737.00 261.00 
C 734.05 261.86 730.92 262.15 728.00 263.00
C 721.65 265.71 713.93 270.76 708.00 275.00
C 705.32 277.24 702.28 281.01 701.00 284.00
C 714.05 275.61 736.88 254.56 746.00 277.00
C 748.00 277.00 750.00 277.00 752.00 277.00
C 753.66 277.04 755.34 277.00 757.00 277.00
C 760.71 276.61 765.58 275.46 770.00 276.00
C 768.30 273.81 764.52 275.56 762.00 275.00
C 761.68 270.02 757.28 266.88 761.00 261.00
C 752.83 259.73 745.99 263.65 738.00 263.00
C 737.75 261.50 739.09 260.65 740.00 260.00
C 738.93 260.30 738.03 260.70 737.00 261.00 Z"/>
</g>
<g fill="None" fill-opacity="0.0" stroke="#301E3B" stroke-opacity="1.00" stroke-width="0.3"><path d="
M 688.00 295.00 
C 693.46 288.35 700.85 280.10 708.00 275.00
C 713.93 270.76 721.65 265.71 728.00 263.00
C 712.51 267.51 696.49 281.00 688.00 295.00 Z"/>
</g>
<g fill="None" fill-opacity="0.0" stroke="#4F245A" stroke-opacity="1.00" stroke-width="0.3"><path d="
M 677.00 291.00 
C 680.46 287.68 683.40 283.22 686.25 279.25 C 689.10 275.29 694.29 272.76 697.00 269.00
C 697.52 268.05 697.59 266.87 698.00 266.00
C 691.97 272.78 679.01 281.84 677.00 291.00 Z"/>
</g>
<g fill="None" fill-opacity="0.0" stroke="#8F349C" stroke-opacity="1.00" stroke-width="0.3"><path d="
M 708.00 275.00 
C 700.85 280.10 693.46 288.35 688.00 295.00
C 679.95 308.28 673.44 323.18 665.00 336.00
C 662.54 341.33 660.01 347.42 658.00 353.00
C 657.04 355.66 656.16 358.36 655.00 361.00
C 659.29 360.80 657.25 357.67 660.00 357.00
C 661.73 359.54 662.10 361.50 666.00 363.00
C 659.24 365.78 669.18 366.22 665.00 371.00
C 666.40 371.02 667.92 371.00 669.00 370.00
C 678.88 347.62 688.62 323.70 705.00 305.00
C 705.53 306.28 704.03 306.86 704.00 308.00
C 712.28 295.80 727.46 284.51 741.00 280.00
C 744.22 278.93 749.02 277.38 752.00 277.00
C 750.00 277.00 748.00 277.00 746.00 277.00
C 736.88 254.56 714.05 275.61 701.00 284.00
C 702.28 281.01 705.32 277.24 708.00 275.00 Z"/>
</g>
<g fill="None" fill-opacity="0.0" stroke="#26192E" stroke-opacity="1.00" stroke-width="0.3"><path d="
M 677.00 291.00 
C 677.00 291.00 677.24 291.68 677.00 292.00
C 674.27 295.58 672.35 299.26 670.00 303.00
C 674.27 297.55 679.68 291.38 683.23 285.23 C 686.78 279.08 693.60 275.20 697.00 269.00
C 694.29 272.76 689.10 275.29 686.25 279.25 C 683.40 283.22 680.46 287.68 677.00 291.00 Z"/>
</g>
<g fill="None" fill-opacity="0.0" stroke="#7AA0C4" stroke-opacity="1.00" stroke-width="0.3"><path d="
M 833.00 315.00 
C 832.76 315.31 833.00 316.00 833.00 316.00
C 837.67 316.00 842.33 316.00 847.00 316.00
C 848.09 315.82 850.24 314.12 852.00 315.00
C 850.67 307.42 844.72 300.50 837.00 300.00
C 833.67 300.00 830.33 300.00 827.00 300.00
C 824.62 287.63 814.12 275.94 803.00 270.00
C 817.04 279.75 828.21 295.18 830.00 311.00
C 832.90 310.35 834.40 313.19 833.00 315.00 Z"/>
</g>
<g fill="None" fill-opacity="0.0" stroke="#4D3761" stroke-opacity="1.00" stroke-width="0.3"><path d="
M 757.00 277.00 
C 761.99 277.00 767.02 276.81 772.00 277.00
C 771.48 276.89 771.01 276.12 770.00 276.00
C 765.58 275.46 760.71 276.61 757.00 277.00 Z"/>
</g>
<g fill="None" fill-opacity="0.0" stroke="#362040" stroke-opacity="1.00" stroke-width="0.3"><path d="
M 704.00 308.00 
C 699.82 314.16 696.70 321.30 693.00 328.00
C 699.63 318.90 705.05 308.45 712.75 299.75 C 720.45 291.06 731.46 284.77 741.00 280.00
C 727.46 284.51 712.28 295.80 704.00 308.00 Z"/>
</g>
<g fill="None" fill-opacity="0.0" stroke="#5C2863" stroke-opacity="1.00" stroke-width="0.3"><path d="
M 667.00 307.00 
C 667.82 305.76 669.09 304.45 670.00 303.00
C 672.35 299.26 674.27 295.58 677.00 292.00
C 671.90 295.56 669.60 301.81 667.00 307.00 Z"/>
</g>
<g fill="None" fill-opacity="0.0" stroke="#3F626B" stroke-opacity="1.00" stroke-width="0.3"><path d="
M 851.00 294.00 
C 849.47 298.09 831.84 296.81 829.00 294.00
C 832.91 300.55 844.90 295.33 852.00 297.00
C 852.89 295.99 851.02 294.34 851.00 294.00 Z"/>
</g>
<g fill="None" fill-opacity="0.0" stroke="#76B2C7" stroke-opacity="1.00" stroke-width="0.3"><path d="
M 837.00 300.00 
C 844.72 300.50 850.67 307.42 852.00 315.00
C 850.24 314.12 848.09 315.82 847.00 316.00
C 856.33 316.00 865.67 316.00 875.00 316.00
C 874.88 313.68 875.16 311.32 875.00 309.00
C 872.94 310.07 874.47 313.12 874.00 315.00
C 865.07 315.29 867.90 301.27 859.00 299.00
C 852.85 301.68 844.45 300.00 837.00 300.00 Z"/>
</g>
<g fill="None" fill-opacity="0.0" stroke="#D34B96" stroke-opacity="1.00" stroke-width="0.3"><path d="
M 581.00 396.00 
C 567.94 369.59 558.93 340.29 546.00 314.00
C 545.74 313.75 545.17 313.33 545.00 313.00
C 543.46 310.03 542.28 306.98 541.00 304.00
C 539.71 303.83 539.25 302.30 538.00 302.00
C 538.52 312.87 546.54 323.90 550.23 334.77 C 553.92 345.64 560.77 356.38 565.03 366.98 C 569.28 377.57 573.93 389.88 581.00 396.00 Z"/>
</g>
<g fill="None" fill-opacity="0.0" stroke="#AB49A4" stroke-opacity="1.00" stroke-width="0.3"><path d="
M 669.00 370.00 
C 665.53 377.84 660.44 386.51 657.32 394.32 C 654.21 402.13 647.40 410.95 650.00 418.00
C 651.53 410.18 658.07 402.48 660.92 394.92 C 663.77 387.37 668.30 379.24 672.00 372.00
C 679.42 357.49 685.10 342.33 693.00 328.00
C 696.70 321.30 699.82 314.16 704.00 308.00
C 704.03 306.86 705.53 306.28 705.00 305.00
C 688.62 323.70 678.88 347.62 669.00 370.00 Z"/>
</g>
<g fill="None" fill-opacity="0.0" stroke="#84369F" stroke-opacity="1.00" stroke-width="0.3"><path d="
M 812.00 373.00 
C 819.33 371.35 810.89 362.87 809.22 359.78 C 807.56 356.68 800.96 348.91 798.00 347.00
C 772.99 336.62 730.13 339.91 723.00 307.00
C 714.77 312.42 703.40 325.76 712.75 334.25 C 722.11 342.74 729.48 347.84 740.98 352.02 C 752.47 356.21 765.67 358.09 777.33 361.67 C 788.98 365.25 801.08 367.60 812.00 373.00 Z"/>
</g>
<g fill="None" fill-opacity="0.0" stroke="#77274D" stroke-opacity="1.00" stroke-width="0.3"><path d="
M 526.00 323.00 
C 524.65 318.95 522.80 315.64 521.00 312.00
C 522.38 315.83 524.41 319.52 526.00 323.00 Z"/>
</g>
<g fill="None" fill-opacity="0.0" stroke="#451F39" stroke-opacity="1.00" stroke-width="0.3"><path d="
M 581.00 396.00 
C 584.97 404.03 588.79 412.77 593.00 421.00
C 589.26 410.28 584.10 396.89 578.32 385.68 C 572.55 374.47 569.07 360.30 562.31 349.69 C 555.54 339.09 555.07 322.69 546.00 314.00
C 558.93 340.29 567.94 369.59 581.00 396.00 Z"/>
</g>
<g fill="None" fill-opacity="0.0" stroke="#6C7398" stroke-opacity="1.00" stroke-width="0.3"><path d="
M 833.00 316.00 
C 833.00 316.00 832.76 315.31 833.00 315.00
C 826.72 314.43 820.29 315.43 814.00 315.00
C 817.04 317.89 828.56 316.00 833.00 316.00 Z"/>
</g>
<g fill="None" fill-opacity="0.0" stroke="#391B36" stroke-opacity="1.00" stroke-width="0.3"><path d="
M 628.00 396.00 
C 628.84 399.84 631.16 403.19 632.00 407.00
C 637.97 396.91 643.93 385.32 648.00 374.00
C 650.64 366.68 654.64 359.79 658.00 353.00
C 660.01 347.42 662.54 341.33 665.00 336.00
C 653.36 355.65 644.07 380.78 634.00 403.00
C 631.89 401.95 629.25 398.29 628.00 396.00 Z"/>
</g>
<g fill="None" fill-opacity="0.0" stroke="#8662B2" stroke-opacity="1.00" stroke-width="0.3"><path d="
M 812.00 373.00 
C 838.54 386.13 857.10 406.96 854.00 439.00
C 854.48 440.37 860.96 443.78 862.75 446.25 C 864.54 448.72 869.78 455.22 872.00 453.00
C 872.48 450.81 873.63 447.81 874.00 446.00
C 876.22 421.57 872.28 395.76 854.75 378.25 C 837.22 360.73 820.07 354.55 798.00 347.00
C 800.96 348.91 807.56 356.68 809.22 359.78 C 810.89 362.87 819.33 371.35 812.00 373.00 Z"/>
</g>
<g fill="None" fill-opacity="0.0" stroke="#892D98" stroke-opacity="1.00" stroke-width="0.3"><path d="
M 809.00 444.00 
C 807.00 448.48 802.34 452.88 798.00 455.00
C 782.38 466.16 755.82 464.32 739.00 456.00
C 739.69 458.28 737.71 461.91 735.00 461.00
C 734.34 464.07 740.66 465.42 735.00 467.00
C 738.25 468.03 736.87 471.94 741.00 472.00
C 738.80 473.17 736.74 475.40 734.00 474.00
C 737.62 475.65 742.22 477.96 746.00 479.00
C 749.49 479.39 752.42 479.86 756.00 480.00
C 766.93 480.42 778.45 480.51 789.00 479.00
C 810.92 475.87 827.75 460.20 833.00 439.00
C 833.94 431.45 833.41 421.54 830.00 415.00
C 829.83 414.67 829.09 414.25 829.00 414.00
C 830.86 419.03 831.94 424.45 832.00 430.00
C 827.98 407.47 806.70 393.38 786.00 387.00
C 789.19 384.01 793.27 388.47 797.00 388.00
C 763.75 375.00 724.19 373.27 696.00 348.00
C 693.83 354.64 689.89 360.59 687.00 367.00
C 705.84 383.08 736.22 392.42 758.98 397.02 C 781.73 401.63 823.27 412.05 809.00 444.00 Z"/>
</g>
<g fill="None" fill-opacity="0.0" stroke="#6E2A64" stroke-opacity="1.00" stroke-width="0.3"><path d="
M 648.00 374.00 
C 650.06 369.84 653.01 365.51 655.00 361.00
C 656.16 358.36 657.04 355.66 658.00 353.00
C 654.64 359.79 650.64 366.68 648.00 374.00 Z"/>
</g>
<g fill="None" fill-opacity="0.0" stroke="#42213F" stroke-opacity="1.00" stroke-width="0.3"><path d="
M 650.00 418.00 
C 649.82 418.94 650.27 420.09 650.00 421.00
C 659.15 407.11 667.27 386.90 672.00 372.00
C 668.30 379.24 663.77 387.37 660.92 394.92 C 658.07 402.48 651.53 410.18 650.00 418.00 Z"/>
</g>
<g fill="None" fill-opacity="0.0" stroke="#A22D89" stroke-opacity="1.00" stroke-width="0.3"><path d="
M 688.00 387.00 
C 692.64 382.41 687.85 398.80 683.23 404.23 C 678.61 409.66 677.13 422.41 673.08 429.08 C 669.02 435.74 665.30 445.79 662.00 453.00
C 663.16 456.89 677.33 459.83 673.77 466.77 C 670.21 473.71 668.49 477.08 666.00 484.00
C 668.88 478.17 671.94 471.98 675.00 466.00
C 685.24 441.82 697.85 418.53 707.00 394.00
C 700.46 392.71 692.31 380.93 688.00 387.00 Z"/>
</g>
<g fill="None" fill-opacity="0.0" stroke="#C04B9F" stroke-opacity="1.00" stroke-width="0.3"><path d="
M 688.00 387.00 
C 679.86 398.46 673.92 415.00 669.00 428.00
C 661.30 448.36 651.03 468.25 642.00 488.00
C 651.24 478.58 656.42 465.21 662.00 453.00
C 665.30 445.79 669.02 435.74 673.08 429.08 C 677.13 422.41 678.61 409.66 683.23 404.23 C 687.85 398.80 692.64 382.41 688.00 387.00 Z"/>
</g>
<g fill="None" fill-opacity="0.0" stroke="#9C57B3" stroke-opacity="1.00" stroke-width="0.3"><path d="
M 829.00 414.00 
C 824.56 401.56 809.08 391.52 797.00 388.00
C 793.27 388.47 789.19 384.01 786.00 387.00
C 806.70 393.38 827.98 407.47 832.00 430.00
C 831.94 424.45 830.86 419.03 829.00 414.00 Z"/>
</g>
<g fill="None" fill-opacity="0.0" stroke="#291D34" stroke-opacity="1.00" stroke-width="0.3"><path d="
M 833.00 439.00 
C 834.62 432.45 835.89 420.08 830.00 415.00
C 833.41 421.54 833.94 431.45 833.00 439.00 Z"/>
</g>
<g fill="None" fill-opacity="0.0" stroke="#341A35" stroke-opacity="1.00" stroke-width="0.3"><path d="
M 746.00 479.00 
C 742.22 477.96 737.62 475.65 734.00 474.00
C 727.71 471.12 721.12 469.57 716.25 463.75 C 711.38 457.94 706.06 456.14 702.23 448.77 C 698.40 441.40 701.62 437.70 705.78 428.78 C 709.94 419.85 713.44 423.35 717.00 433.00
C 724.01 446.86 738.74 457.42 754.00 460.00
C 746.51 458.09 737.47 454.74 731.25 448.75 C 725.03 442.76 719.63 440.39 716.93 430.07 C 714.22 419.75 707.48 421.07 703.31 431.31 C 699.13 441.54 698.00 446.78 704.75 454.25 C 711.50 461.71 714.87 464.63 722.30 469.70 C 729.74 474.76 737.23 478.02 746.00 479.00 Z"/>
</g>
<g fill="None" fill-opacity="0.0" stroke="#A02C89" stroke-opacity="1.00" stroke-width="0.3"><path d="
M 734.00 474.00 
C 736.74 475.40 738.80 473.17 741.00 472.00
C 736.87 471.94 738.25 468.03 735.00 467.00
C 740.66 465.42 734.34 464.07 735.00 461.00
C 737.71 461.91 739.69 458.28 739.00 456.00
C 729.70 451.40 720.65 442.88 717.00 433.00
C 713.44 423.35 709.94 419.85 705.78 428.78 C 701.62 437.70 698.40 441.40 702.23 448.77 C 706.06 456.14 711.38 457.94 716.25 463.75 C 721.12 469.57 727.71 471.12 734.00 474.00 Z"/>
</g>
<g fill="None" fill-opacity="0.0" stroke="#3F1D35" stroke-opacity="1.00" stroke-width="0.3"><path d="
M 622.00 486.00 
C 622.78 487.72 623.43 489.26 624.00 491.00
C 624.91 493.05 626.75 495.44 627.00 498.00
C 630.33 498.00 633.67 498.00 637.00 498.00
C 638.92 496.62 641.09 489.99 642.00 488.00
C 651.03 468.25 661.30 448.36 669.00 428.00
C 665.07 435.06 661.07 440.95 657.92 448.92 C 654.78 456.90 651.70 462.65 647.92 470.92 C 644.15 479.20 642.82 483.79 637.92 492.92 C 633.03 502.06 625.76 492.40 622.00 486.00 Z"/>
</g>
<g fill="None" fill-opacity="0.0" stroke="#652668" stroke-opacity="1.00" stroke-width="0.3"><path d="
M 739.00 456.00 
C 755.82 464.32 782.38 466.16 798.00 455.00
C 792.39 457.74 785.34 460.50 779.00 461.00
C 770.84 461.65 761.82 461.32 754.00 460.00
C 738.74 457.42 724.01 446.86 717.00 433.00
C 720.65 442.88 729.70 451.40 739.00 456.00 Z"/>
</g>
<g fill="None" fill-opacity="0.0" stroke="#8D3097" stroke-opacity="1.00" stroke-width="0.3"><path d="
M 796.00 497.00 
C 776.34 502.17 752.43 501.22 733.00 495.00
C 735.52 497.40 733.87 499.23 731.00 500.00
C 731.99 502.73 731.54 506.79 735.00 508.00
C 734.69 510.50 732.09 512.22 732.00 514.00
C 776.85 527.61 836.11 517.11 863.00 475.00
C 865.27 471.45 866.74 467.44 869.00 464.00
C 870.45 460.76 871.23 456.54 872.00 453.00
C 869.78 455.22 864.54 448.72 862.75 446.25 C 860.96 443.78 854.48 440.37 854.00 439.00
C 851.01 469.93 824.08 489.61 796.00 497.00 Z"/>
</g>
<g fill="None" fill-opacity="0.0" stroke="#2E1937" stroke-opacity="1.00" stroke-width="0.3"><path d="
M 779.00 461.00 
C 785.34 460.50 792.39 457.74 798.00 455.00
C 802.34 452.88 807.00 448.48 809.00 444.00
C 803.20 453.00 788.27 459.21 779.00 461.00 Z"/>
</g>
<g fill="None" fill-opacity="0.0" stroke="#2E213E" stroke-opacity="1.00" stroke-width="0.3"><path d="
M 872.00 453.00 
C 871.23 456.54 870.45 460.76 869.00 464.00
C 872.75 458.30 873.36 452.98 874.00 446.00
C 873.63 447.81 872.48 450.81 872.00 453.00 Z"/>
</g>
<g fill="None" fill-opacity="0.0" stroke="#391B39" stroke-opacity="1.00" stroke-width="0.3"><path d="
M 863.00 475.00 
C 836.11 517.11 776.85 527.61 732.00 514.00
C 723.13 511.31 714.69 509.11 706.31 504.69 C 697.92 500.28 692.99 496.02 685.25 489.75 C 677.50 483.48 686.53 473.70 689.00 466.00
C 701.05 478.67 716.19 489.52 733.00 495.00
C 752.43 501.22 776.34 502.17 796.00 497.00
C 757.05 503.77 715.50 495.03 689.00 464.00
C 680.78 475.08 677.56 487.40 689.75 495.25 C 701.95 503.09 708.52 507.93 721.78 512.22 C 735.03 516.52 748.79 520.04 763.00 520.00 C 777.21 519.96 795.42 520.12 807.77 515.77 C 820.12 511.42 831.26 507.34 841.25 500.25 C 851.24 493.16 859.06 484.45 863.00 475.00 Z"/>
</g>
<g fill="None" fill-opacity="0.0" stroke="#3B1B31" stroke-opacity="1.00" stroke-width="0.3"><path d="
M 666.00 484.00 
C 664.53 488.09 662.60 491.93 661.00 496.00
C 659.62 499.51 657.61 502.82 656.00 506.00
C 655.12 508.39 654.10 510.39 654.00 513.00
C 659.23 506.50 661.24 496.61 665.23 489.23 C 669.22 481.84 672.95 472.77 675.00 466.00
C 671.94 471.98 668.88 478.17 666.00 484.00 Z"/>
</g>
<g fill="None" fill-opacity="0.0" stroke="#AE2C81" stroke-opacity="1.00" stroke-width="0.3"><path d="
M 732.00 514.00 
C 732.09 512.22 734.69 510.50 735.00 508.00
C 731.54 506.79 731.99 502.73 731.00 500.00
C 733.87 499.23 735.52 497.40 733.00 495.00
C 716.19 489.52 701.05 478.67 689.00 466.00
C 686.53 473.70 677.50 483.48 685.25 489.75 C 692.99 496.02 697.92 500.28 706.31 504.69 C 714.69 509.11 723.13 511.31 732.00 514.00 Z"/>
</g>
<g fill="None" fill-opacity="0.0" stroke="#732346" stroke-opacity="1.00" stroke-width="0.3"><path d="
M 595.00 481.00 
C 596.40 483.85 598.71 487.18 600.00 490.00
C 598.64 485.92 596.94 482.63 595.00 479.00
C 595.17 479.43 594.92 480.51 595.00 481.00 Z"/>
</g>
<g fill="None" fill-opacity="0.0" stroke="#4F2556" stroke-opacity="1.00" stroke-width="0.3"><path d="
M 756.00 480.00 
C 767.20 482.16 777.97 482.21 789.00 479.00
C 778.45 480.51 766.93 480.42 756.00 480.00 Z"/>
</g>
<g fill="None" fill-opacity="0.0" stroke="#311626" stroke-opacity="1.00" stroke-width="0.3"><path d="
M 654.00 514.00 
C 654.00 514.00 653.37 514.22 653.00 514.00
C 650.44 520.92 640.69 519.82 634.00 519.00 C 627.31 518.18 616.35 521.95 612.00 517.00
C 606.84 511.14 602.47 497.41 600.00 490.00
C 598.71 487.18 596.40 483.85 595.00 481.00
C 596.60 490.21 603.06 496.54 605.23 505.77 C 607.40 515.00 616.21 523.38 626.00 520.00 C 635.79 516.62 651.13 526.46 654.00 514.00 Z"/>
</g>
<g fill="None" fill-opacity="0.0" stroke="#7C2750" stroke-opacity="1.00" stroke-width="0.3"><path d="
M 637.00 498.00 
C 633.67 498.00 630.33 498.00 627.00 498.00
C 626.75 495.44 624.91 493.05 624.00 491.00
C 625.83 496.62 629.88 503.13 637.00 498.00 Z"/>
</g>
<g fill="None" fill-opacity="0.0" stroke="#802C5A" stroke-opacity="1.00" stroke-width="0.3"><path d="
M 656.00 506.00 
C 657.61 502.82 659.62 499.51 661.00 496.00
C 659.30 499.19 657.32 502.42 656.00 506.00 Z"/>
</g>
<g fill="None" fill-opacity="0.0" stroke="#993362" stroke-opacity="1.00" stroke-width="0.3"><path d="
M 612.00 517.00 
C 616.35 521.95 627.31 518.18 634.00 519.00 C 640.69 519.82 650.44 520.92 653.00 514.00
C 650.56 512.55 650.79 521.24 643.00 518.00 C 635.21 514.76 618.89 522.60 612.00 517.00 Z"/>
</g>
<g fill="None" fill-opacity="0.0" stroke="#8A8A8E" stroke-opacity="1.00" stroke-width="0.3"><path d="
M 1302.00 661.00 
C 1296.68 668.81 1290.36 682.47 1278.00 683.00
C 1287.58 687.59 1297.41 697.42 1302.00 707.00
C 1303.15 694.62 1316.14 688.66 1324.00 683.00
C 1313.19 681.30 1304.12 671.54 1302.00 661.00 Z"/>
</g>
<g fill="#1C1E25" fill-opacity="1.00" stroke="None">
<path d="
M 0.00 738.00 
L 1355.00 738.00
L 1355.00 0.00
L 0.00 0.00
L 0.00 738.00
M 572.00 268.00 
C 586.12 312.06 612.33 352.47 628.00 396.00
C 629.25 398.29 631.89 401.95 634.00 403.00
C 644.07 380.78 653.36 355.65 665.00 336.00
C 673.44 323.18 679.95 308.28 688.00 295.00
C 696.49 281.00 712.51 267.51 728.00 263.00
C 730.92 262.15 734.05 261.86 737.00 261.00
C 740.04 259.81 742.04 258.36 746.00 258.00
C 750.49 257.59 754.51 257.17 759.00 257.00
C 765.54 256.75 771.68 257.29 778.00 258.00
C 782.61 258.52 786.99 259.61 791.00 261.00
C 799.67 264.01 806.11 267.86 813.75 273.25 C 821.38 278.65 824.00 287.13 829.00 294.00
C 831.84 296.81 849.47 298.09 851.00 294.00
C 850.25 280.46 834.89 262.55 824.00 255.00
C 815.86 249.36 805.42 244.63 796.00 242.00
C 792.07 240.90 788.03 239.85 784.00 239.00
C 774.88 237.08 764.55 238.00 755.00 238.00
C 754.50 238.00 753.42 237.82 753.00 238.00
C 745.17 241.33 735.29 241.34 727.00 245.00
C 715.72 249.98 706.36 256.60 698.00 266.00
C 697.59 266.87 697.52 268.05 697.00 269.00
C 693.60 275.20 686.78 279.08 683.23 285.23 C 679.68 291.38 674.27 297.55 670.00 303.00
C 669.09 304.45 667.82 305.76 667.00 307.00
C 664.95 311.10 663.31 315.96 660.00 319.00
C 660.00 313.67 660.00 308.33 660.00 303.00
C 660.00 259.86 705.71 219.00 748.00 219.00
C 750.00 219.00 752.00 219.00 754.00 219.00
C 755.67 219.00 757.33 219.00 759.00 219.00
C 763.43 218.53 768.65 218.59 773.00 219.00
C 775.30 219.00 777.71 218.80 780.00 219.00
C 786.01 219.51 792.22 221.41 798.00 223.00
C 805.08 224.95 812.29 226.79 819.00 230.00
C 849.19 244.44 872.71 275.39 875.00 309.00
C 875.16 311.32 874.88 313.68 875.00 316.00
C 865.67 316.00 856.33 316.00 847.00 316.00
C 842.33 316.00 837.67 316.00 833.00 316.00
C 828.56 316.00 817.04 317.89 814.00 315.00
C 810.41 311.58 811.91 302.01 808.23 297.77 C 804.55 293.53 801.82 288.24 797.00 285.00
C 789.81 280.17 780.65 277.33 772.00 277.00
C 767.02 276.81 761.99 277.00 757.00 277.00
C 755.34 277.00 753.66 277.04 752.00 277.00
C 749.02 277.38 744.22 278.93 741.00 280.00
C 731.46 284.77 720.45 291.06 712.75 299.75 C 705.05 308.45 699.63 318.90 693.00 328.00
C 685.10 342.33 679.42 357.49 672.00 372.00
C 667.27 386.90 659.15 407.11 650.00 421.00
C 642.73 432.04 639.53 447.74 631.00 457.00
C 604.00 393.75 574.69 330.53 548.00 267.00
C 544.08 260.26 539.98 256.19 538.03 246.98 C 536.07 237.76 522.75 239.77 515.00 240.00
C 523.18 264.69 537.64 289.48 545.00 313.00
C 545.17 313.33 545.74 313.75 546.00 314.00
C 555.07 322.69 555.54 339.09 562.31 349.69 C 569.07 360.30 572.55 374.47 578.32 385.68 C 584.10 396.89 589.26 410.28 593.00 421.00
C 603.83 442.18 612.17 464.30 622.00 486.00
C 625.76 492.40 633.03 502.06 637.92 492.92 C 642.82 483.79 644.15 479.20 647.92 470.92 C 651.70 462.65 654.78 456.90 657.92 448.92 C 661.07 440.95 665.07 435.06 669.00 428.00
C 673.92 415.00 679.86 398.46 688.00 387.00
C 692.31 380.93 700.46 392.71 707.00 394.00
C 697.85 418.53 685.24 441.82 675.00 466.00
C 672.95 472.77 669.22 481.84 665.23 489.23 C 661.24 496.61 659.23 506.50 654.00 513.00
C 653.98 513.50 654.00 514.00 654.00 514.00
C 651.13 526.46 635.79 516.62 626.00 520.00 C 616.21 523.38 607.40 515.00 605.23 505.77 C 603.06 496.54 596.60 490.21 595.00 481.00
C 594.92 480.51 595.17 479.43 595.00 479.00
C 576.91 432.97 554.58 388.37 535.00 343.00
C 512.11 304.45 499.05 259.37 479.00 219.00
C 488.15 217.45 496.21 217.66 506.00 218.00 C 515.79 218.34 524.72 217.05 535.00 218.00 C 545.28 218.95 550.46 213.78 554.92 227.08 C 559.38 240.37 567.78 254.47 572.00 268.00
M 798.00 347.00 
C 820.07 354.55 837.22 360.73 854.75 378.25 C 872.28 395.76 876.22 421.57 874.00 446.00
C 873.36 452.98 872.75 458.30 869.00 464.00
C 866.74 467.44 865.27 471.45 863.00 475.00
C 859.06 484.45 851.24 493.16 841.25 500.25 C 831.26 507.34 820.12 511.42 807.77 515.77 C 795.42 520.12 777.21 519.96 763.00 520.00 C 748.79 520.04 735.03 516.52 721.78 512.22 C 708.52 507.93 701.95 503.09 689.75 495.25 C 677.56 487.40 680.78 475.08 689.00 464.00
C 715.50 495.03 757.05 503.77 796.00 497.00
C 824.08 489.61 851.01 469.93 854.00 439.00
C 857.10 406.96 838.54 386.13 812.00 373.00
C 801.08 367.60 788.98 365.25 777.33 361.67 C 765.67 358.09 752.47 356.21 740.98 352.02 C 729.48 347.84 722.11 342.74 712.75 334.25 C 703.40 325.76 714.77 312.42 723.00 307.00
C 730.13 339.91 772.99 336.62 798.00 347.00
M 797.00 388.00 
C 809.08 391.52 824.56 401.56 829.00 414.00
C 829.09 414.25 829.83 414.67 830.00 415.00
C 835.89 420.08 834.62 432.45 833.00 439.00
C 827.75 460.20 810.92 475.87 789.00 479.00
C 777.97 482.21 767.20 482.16 756.00 480.00
C 752.42 479.86 749.49 479.39 746.00 479.00
C 737.23 478.02 729.74 474.76 722.30 469.70 C 714.87 464.63 711.50 461.71 704.75 454.25 C 698.00 446.78 699.13 441.54 703.31 431.31 C 707.48 421.07 714.22 419.75 716.93 430.07 C 719.63 440.39 725.03 442.76 731.25 448.75 C 737.47 454.74 746.51 458.09 754.00 460.00
C 761.82 461.32 770.84 461.65 779.00 461.00
C 788.27 459.21 803.20 453.00 809.00 444.00
C 823.27 412.05 781.73 401.63 758.98 397.02 C 736.22 392.42 705.84 383.08 687.00 367.00
C 689.89 360.59 693.83 354.64 696.00 348.00
C 724.19 373.27 763.75 375.00 797.00 388.00
M 1302.00 661.00 
C 1304.12 671.54 1313.19 681.30 1324.00 683.00
C 1316.14 688.66 1303.15 694.62 1302.00 707.00
C 1297.41 697.42 1287.58 687.59 1278.00 683.00
C 1290.36 682.47 1296.68 668.81 1302.00 661.00 Z"/>
</g>
<g fill="#3B192E" fill-opacity="1.00" stroke="None">
<path d="
M 535.00 343.00 
C 532.11 336.30 528.30 329.89 526.00 323.00
C 524.41 319.52 522.38 315.83 521.00 312.00
C 517.38 301.95 511.81 291.90 508.08 281.92 C 504.34 271.95 497.44 262.41 494.70 252.30 C 491.95 242.20 482.45 232.41 482.00 222.00
C 481.99 221.68 480.11 220.00 481.00 219.00
C 491.14 220.32 506.37 217.24 516.00 219.00 C 525.63 220.76 542.52 215.05 549.74 220.26 C 556.96 225.47 555.58 237.43 560.92 244.08 C 566.27 250.72 566.26 261.73 572.00 268.00
C 567.78 254.47 559.38 240.37 554.92 227.08 C 550.46 213.78 545.28 218.95 535.00 218.00 C 524.72 217.05 515.79 218.34 506.00 218.00 C 496.21 217.66 488.15 217.45 479.00 219.00
C 499.05 259.37 512.11 304.45 535.00 343.00 Z"/>
</g>
<g fill="#4D506C" fill-opacity="1.00" stroke="None">
<path d="
M 759.00 219.00 
C 763.67 219.00 768.33 219.00 773.00 219.00
C 768.65 218.59 763.43 218.53 759.00 219.00 Z"/>
</g>
<g fill="#B93384" fill-opacity="1.00" stroke="None">
<path d="
M 482.00 222.00 
C 484.28 216.04 499.16 222.40 505.00 220.00 C 510.84 217.60 520.44 224.73 524.00 221.00
C 527.03 224.82 531.18 225.44 535.00 225.00
C 529.90 229.76 538.76 232.02 536.00 237.00
C 533.81 237.52 530.38 235.86 529.00 238.00
C 532.35 238.13 533.79 237.61 536.00 240.00
C 541.27 245.70 545.15 259.65 548.00 267.00
C 574.69 330.53 604.00 393.75 631.00 457.00
C 639.53 447.74 642.73 432.04 650.00 421.00
C 650.27 420.09 649.82 418.94 650.00 418.00
C 647.40 410.95 654.21 402.13 657.32 394.32 C 660.44 386.51 665.53 377.84 669.00 370.00
C 667.92 371.00 666.40 371.02 665.00 371.00
C 669.18 366.22 659.24 365.78 666.00 363.00
C 662.10 361.50 661.73 359.54 660.00 357.00
C 657.25 357.67 659.29 360.80 655.00 361.00
C 653.01 365.51 650.06 369.84 648.00 374.00
C 643.93 385.32 637.97 396.91 632.00 407.00
C 631.16 403.19 628.84 399.84 628.00 396.00
C 612.33 352.47 586.12 312.06 572.00 268.00
C 566.26 261.73 566.27 250.72 560.92 244.08 C 555.58 237.43 556.96 225.47 549.74 220.26 C 542.52 215.05 525.63 220.76 516.00 219.00 C 506.37 217.24 491.14 220.32 481.00 219.00
C 480.11 220.00 481.99 221.68 482.00 222.00 Z"/>
</g>
<g fill="#321D3C" fill-opacity="1.00" stroke="None">
<path d="
M 660.00 303.00 
C 663.35 268.39 687.47 239.31 720.00 227.00
C 726.55 224.52 733.14 222.45 740.00 221.00
C 742.43 220.49 746.01 219.26 748.00 219.00
C 705.71 219.00 660.00 259.86 660.00 303.00 Z"/>
</g>
<g fill="#8370B7" fill-opacity="1.00" stroke="None">
<path d="
M 740.00 221.00 
C 744.48 222.03 750.60 235.13 749.00 238.00
C 750.33 238.00 751.67 238.00 753.00 238.00
C 753.42 237.82 754.50 238.00 755.00 238.00
C 758.75 236.41 765.58 238.46 767.00 233.00
C 761.66 228.50 758.92 222.25 754.00 219.00
C 752.00 219.00 750.00 219.00 748.00 219.00
C 746.01 219.26 742.43 220.49 740.00 221.00 Z"/>
</g>
<g fill="#7F88BC" fill-opacity="1.00" stroke="None">
<path d="
M 755.00 238.00 
C 764.55 238.00 774.88 237.08 784.00 239.00
C 793.48 236.82 784.58 227.75 784.00 223.00
C 781.28 223.63 779.59 220.93 777.00 221.00
C 777.24 219.33 779.85 220.83 780.00 219.00
C 777.71 218.80 775.30 219.00 773.00 219.00
C 768.33 219.00 763.67 219.00 759.00 219.00
C 757.33 219.00 755.67 219.00 754.00 219.00
C 758.92 222.25 761.66 228.50 767.00 233.00
C 765.58 238.46 758.75 236.41 755.00 238.00 Z"/>
</g>
<g fill="#7FA2C5" fill-opacity="1.00" stroke="None">
<path d="
M 784.00 239.00 
C 788.03 239.85 792.07 240.90 796.00 242.00
C 798.31 241.84 802.17 237.81 805.00 241.00
C 804.39 233.57 800.24 228.49 798.00 223.00
C 792.22 221.41 786.01 219.51 780.00 219.00
C 779.85 220.83 777.24 219.33 777.00 221.00
C 779.59 220.93 781.28 223.63 784.00 223.00
C 784.58 227.75 793.48 236.82 784.00 239.00 Z"/>
</g>
<g fill="#CD3178" fill-opacity="1.00" stroke="None">
<path d="
M 482.00 222.00 
C 482.45 232.41 491.95 242.20 494.70 252.30 C 497.44 262.41 504.34 271.95 508.08 281.92 C 511.81 291.90 517.38 301.95 521.00 312.00
C 522.80 315.64 524.65 318.95 526.00 323.00
C 528.30 329.89 532.11 336.30 535.00 343.00
C 554.58 388.37 576.91 432.97 595.00 479.00
C 596.94 482.63 598.64 485.92 600.00 490.00
C 602.47 497.41 606.84 511.14 612.00 517.00
C 618.89 522.60 635.21 514.76 643.00 518.00 C 650.79 521.24 650.56 512.55 653.00 514.00
C 653.37 514.22 654.00 514.00 654.00 514.00
C 654.00 514.00 653.98 513.50 654.00 513.00
C 654.10 510.39 655.12 508.39 656.00 506.00
C 657.32 502.42 659.30 499.19 661.00 496.00
C 662.60 491.93 664.53 488.09 666.00 484.00
C 668.49 477.08 670.21 473.71 673.77 466.77 C 677.33 459.83 663.16 456.89 662.00 453.00
C 656.42 465.21 651.24 478.58 642.00 488.00
C 641.09 489.99 638.92 496.62 637.00 498.00
C 629.88 503.13 625.83 496.62 624.00 491.00
C 623.43 489.26 622.78 487.72 622.00 486.00
C 612.17 464.30 603.83 442.18 593.00 421.00
C 588.79 412.77 584.97 404.03 581.00 396.00
C 573.93 389.88 569.28 377.57 565.03 366.98 C 560.77 356.38 553.92 345.64 550.23 334.77 C 546.54 323.90 538.52 312.87 538.00 302.00
C 539.25 302.30 539.71 303.83 541.00 304.00
C 538.79 298.87 535.77 293.38 533.70 288.31 C 531.62 283.23 528.93 276.94 526.74 272.26 C 524.56 267.58 520.87 260.39 520.07 255.93 C 519.27 251.46 510.55 242.88 513.00 239.00
C 514.57 236.51 526.00 237.89 529.00 238.00
C 530.38 235.86 533.81 237.52 536.00 237.00
C 538.76 232.02 529.90 229.76 535.00 225.00
C 531.18 225.44 527.03 224.82 524.00 221.00
C 520.44 224.73 510.84 217.60 505.00 220.00 C 499.16 222.40 484.28 216.04 482.00 222.00 Z"/>
</g>
<g fill="#8558B0" fill-opacity="1.00" stroke="None">
<path d="
M 720.00 227.00 
C 721.96 227.56 722.23 234.44 725.30 236.70 C 728.38 238.96 729.23 242.82 727.00 245.00
C 735.29 241.34 745.17 241.33 753.00 238.00
C 751.67 238.00 750.33 238.00 749.00 238.00
C 750.60 235.13 744.48 222.03 740.00 221.00
C 733.14 222.45 726.55 224.52 720.00 227.00 Z"/>
</g>
<g fill="#82B6CB" fill-opacity="1.00" stroke="None">
<path d="
M 796.00 242.00 
C 805.42 244.63 815.86 249.36 824.00 255.00
C 823.33 253.99 822.45 253.10 822.00 252.00
C 825.75 250.86 827.55 255.03 831.00 255.00
C 825.43 248.16 819.56 238.44 819.00 230.00
C 812.29 226.79 805.08 224.95 798.00 223.00
C 800.24 228.49 804.39 233.57 805.00 241.00
C 802.17 237.81 798.31 241.84 796.00 242.00 Z"/>
</g>
<g fill="#89359E" fill-opacity="1.00" stroke="None">
<path d="
M 660.00 303.00 
C 660.00 308.33 660.00 313.67 660.00 319.00
C 663.31 315.96 664.95 311.10 667.00 307.00
C 669.60 301.81 671.90 295.56 677.00 292.00
C 677.24 291.68 677.00 291.00 677.00 291.00
C 679.01 281.84 691.97 272.78 698.00 266.00
C 706.36 256.60 715.72 249.98 727.00 245.00
C 729.23 242.82 728.38 238.96 725.30 236.70 C 722.23 234.44 721.96 227.56 720.00 227.00
C 687.47 239.31 663.35 268.39 660.00 303.00 Z"/>
</g>
<g fill="#7CC6D1" fill-opacity="1.00" stroke="None">
<path d="
M 824.00 255.00 
C 834.89 262.55 850.25 280.46 851.00 294.00
C 851.02 294.34 852.89 295.99 852.00 297.00
C 844.90 295.33 832.91 300.55 829.00 294.00
C 824.00 287.13 821.38 278.65 813.75 273.25 C 806.11 267.86 799.67 264.01 791.00 261.00
C 790.63 260.58 790.93 264.07 792.00 265.00
C 795.75 266.38 799.40 268.08 803.00 270.00
C 814.12 275.94 824.62 287.63 827.00 300.00
C 830.33 300.00 833.67 300.00 837.00 300.00
C 844.45 300.00 852.85 301.68 859.00 299.00
C 867.90 301.27 865.07 315.29 874.00 315.00
C 874.47 313.12 872.94 310.07 875.00 309.00
C 872.71 275.39 849.19 244.44 819.00 230.00
C 819.56 238.44 825.43 248.16 831.00 255.00
C 827.55 255.03 825.75 250.86 822.00 252.00
C 822.45 253.10 823.33 253.99 824.00 255.00 Z"/>
</g>
<g fill="#6E214A" fill-opacity="1.00" stroke="None">
<path d="
M 513.00 239.00 
C 519.40 241.15 530.44 235.70 536.00 240.00
C 533.79 237.61 532.35 238.13 529.00 238.00
C 526.00 237.89 514.57 236.51 513.00 239.00 Z"/>
</g>
<g fill="#3F1C33" fill-opacity="1.00" stroke="None">
<path d="
M 541.00 304.00 
C 542.28 306.98 543.46 310.03 545.00 313.00
C 537.64 289.48 523.18 264.69 515.00 240.00
C 522.75 239.77 536.07 237.76 538.03 246.98 C 539.98 256.19 544.08 260.26 548.00 267.00
C 545.15 259.65 541.27 245.70 536.00 240.00
C 530.44 235.70 519.40 241.15 513.00 239.00
C 510.55 242.88 519.27 251.46 520.07 255.93 C 520.87 260.39 524.56 267.58 526.74 272.26 C 528.93 276.94 531.62 283.23 533.70 288.31 C 535.77 293.38 538.79 298.87 541.00 304.00 Z"/>
</g>
<g fill="#8672B8" fill-opacity="1.00" stroke="None">
<path d="
M 746.00 258.00 
C 744.50 258.28 741.85 259.49 740.00 260.00
C 739.09 260.65 737.75 261.50 738.00 263.00
C 745.99 263.65 752.83 259.73 761.00 261.00
C 757.28 266.88 761.68 270.02 762.00 275.00
C 764.52 275.56 768.30 273.81 770.00 276.00
C 771.01 276.12 771.48 276.89 772.00 277.00
C 780.65 277.33 789.81 280.17 797.00 285.00
C 794.19 279.34 793.96 271.76 791.00 266.00
C 780.83 261.43 768.82 261.25 759.00 257.00
C 754.51 257.17 750.49 257.59 746.00 258.00 Z"/>
</g>
<g fill="#818CBF" fill-opacity="1.00" stroke="None">
<path d="
M 797.00 285.00 
C 801.82 288.24 804.55 293.53 808.23 297.77 C 811.91 302.01 810.41 311.58 814.00 315.00
C 820.29 315.43 826.72 314.43 833.00 315.00
C 834.40 313.19 832.90 310.35 830.00 311.00
C 828.21 295.18 817.04 279.75 803.00 270.00
C 799.40 268.08 795.75 266.38 792.00 265.00
C 786.72 263.05 781.32 261.80 776.00 260.00
C 776.08 258.74 778.06 259.44 778.00 258.00
C 771.68 257.29 765.54 256.75 759.00 257.00
C 768.82 261.25 780.83 261.43 791.00 266.00
C 793.96 271.76 794.19 279.34 797.00 285.00 Z"/>
</g>
<g fill="#3F3050" fill-opacity="1.00" stroke="None">
<path d="
M 737.00 261.00 
C 738.03 260.70 738.93 260.30 740.00 260.00
C 741.85 259.49 744.50 258.28 746.00 258.00
C 742.04 258.36 740.04 259.81 737.00 261.00 Z"/>
</g>
<g fill="#87A6C5" fill-opacity="1.00" stroke="None">
<path d="
M 792.00 265.00 
C 790.93 264.07 790.63 260.58 791.00 261.00
C 786.99 259.61 782.61 258.52 778.00 258.00
C 778.06 259.44 776.08 258.74 776.00 260.00
C 781.32 261.80 786.72 263.05 792.00 265.00 Z"/>
</g>
<g fill="#8C56B0" fill-opacity="1.00" stroke="None">
<path d="
M 737.00 261.00 
C 734.05 261.86 730.92 262.15 728.00 263.00
C 721.65 265.71 713.93 270.76 708.00 275.00
C 705.32 277.24 702.28 281.01 701.00 284.00
C 714.05 275.61 736.88 254.56 746.00 277.00
C 748.00 277.00 750.00 277.00 752.00 277.00
C 753.66 277.04 755.34 277.00 757.00 277.00
C 760.71 276.61 765.58 275.46 770.00 276.00
C 768.30 273.81 764.52 275.56 762.00 275.00
C 761.68 270.02 757.28 266.88 761.00 261.00
C 752.83 259.73 745.99 263.65 738.00 263.00
C 737.75 261.50 739.09 260.65 740.00 260.00
C 738.93 260.30 738.03 260.70 737.00 261.00 Z"/>
</g>
<g fill="#301E3B" fill-opacity="1.00" stroke="None">
<path d="
M 688.00 295.00 
C 693.46 288.35 700.85 280.10 708.00 275.00
C 713.93 270.76 721.65 265.71 728.00 263.00
C 712.51 267.51 696.49 281.00 688.00 295.00 Z"/>
</g>
<g fill="#4F245A" fill-opacity="1.00" stroke="None">
<path d="
M 677.00 291.00 
C 680.46 287.68 683.40 283.22 686.25 279.25 C 689.10 275.29 694.29 272.76 697.00 269.00
C 697.52 268.05 697.59 266.87 698.00 266.00
C 691.97 272.78 679.01 281.84 677.00 291.00 Z"/>
</g>
<g fill="#8F349C" fill-opacity="1.00" stroke="None">
<path d="
M 708.00 275.00 
C 700.85 280.10 693.46 288.35 688.00 295.00
C 679.95 308.28 673.44 323.18 665.00 336.00
C 662.54 341.33 660.01 347.42 658.00 353.00
C 657.04 355.66 656.16 358.36 655.00 361.00
C 659.29 360.80 657.25 357.67 660.00 357.00
C 661.73 359.54 662.10 361.50 666.00 363.00
C 659.24 365.78 669.18 366.22 665.00 371.00
C 666.40 371.02 667.92 371.00 669.00 370.00
C 678.88 347.62 688.62 323.70 705.00 305.00
C 705.53 306.28 704.03 306.86 704.00 308.00
C 712.28 295.80 727.46 284.51 741.00 280.00
C 744.22 278.93 749.02 277.38 752.00 277.00
C 750.00 277.00 748.00 277.00 746.00 277.00
C 736.88 254.56 714.05 275.61 701.00 284.00
C 702.28 281.01 705.32 277.24 708.00 275.00 Z"/>
</g>
<g fill="#26192E" fill-opacity="1.00" stroke="None">
<path d="
M 677.00 291.00 
C 677.00 291.00 677.24 291.68 677.00 292.00
C 674.27 295.58 672.35 299.26 670.00 303.00
C 674.27 297.55 679.68 291.38 683.23 285.23 C 686.78 279.08 693.60 275.20 697.00 269.00
C 694.29 272.76 689.10 275.29 686.25 279.25 C 683.40 283.22 680.46 287.68 677.00 291.00 Z"/>
</g>
<g fill="#7AA0C4" fill-opacity="1.00" stroke="None">
<path d="
M 833.00 315.00 
C 832.76 315.31 833.00 316.00 833.00 316.00
C 837.67 316.00 842.33 316.00 847.00 316.00
C 848.09 315.82 850.24 314.12 852.00 315.00
C 850.67 307.42 844.72 300.50 837.00 300.00
C 833.67 300.00 830.33 300.00 827.00 300.00
C 824.62 287.63 814.12 275.94 803.00 270.00
C 817.04 279.75 828.21 295.18 830.00 311.00
C 832.90 310.35 834.40 313.19 833.00 315.00 Z"/>
</g>
<g fill="#4D3761" fill-opacity="1.00" stroke="None">
<path d="
M 757.00 277.00 
C 761.99 277.00 767.02 276.81 772.00 277.00
C 771.48 276.89 771.01 276.12 770.00 276.00
C 765.58 275.46 760.71 276.61 757.00 277.00 Z"/>
</g>
<g fill="#362040" fill-opacity="1.00" stroke="None">
<path d="
M 704.00 308.00 
C 699.82 314.16 696.70 321.30 693.00 328.00
C 699.63 318.90 705.05 308.45 712.75 299.75 C 720.45 291.06 731.46 284.77 741.00 280.00
C 727.46 284.51 712.28 295.80 704.00 308.00 Z"/>
</g>
<g fill="#5C2863" fill-opacity="1.00" stroke="None">
<path d="
M 667.00 307.00 
C 667.82 305.76 669.09 304.45 670.00 303.00
C 672.35 299.26 674.27 295.58 677.00 292.00
C 671.90 295.56 669.60 301.81 667.00 307.00 Z"/>
</g>
<g fill="#3F626B" fill-opacity="1.00" stroke="None">
<path d="
M 851.00 294.00 
C 849.47 298.09 831.84 296.81 829.00 294.00
C 832.91 300.55 844.90 295.33 852.00 297.00
C 852.89 295.99 851.02 294.34 851.00 294.00 Z"/>
</g>
<g fill="#76B2C7" fill-opacity="1.00" stroke="None">
<path d="
M 837.00 300.00 
C 844.72 300.50 850.67 307.42 852.00 315.00
C 850.24 314.12 848.09 315.82 847.00 316.00
C 856.33 316.00 865.67 316.00 875.00 316.00
C 874.88 313.68 875.16 311.32 875.00 309.00
C 872.94 310.07 874.47 313.12 874.00 315.00
C 865.07 315.29 867.90 301.27 859.00 299.00
C 852.85 301.68 844.45 300.00 837.00 300.00 Z"/>
</g>
<g fill="#D34B96" fill-opacity="1.00" stroke="None">
<path d="
M 581.00 396.00 
C 567.94 369.59 558.93 340.29 546.00 314.00
C 545.74 313.75 545.17 313.33 545.00 313.00
C 543.46 310.03 542.28 306.98 541.00 304.00
C 539.71 303.83 539.25 302.30 538.00 302.00
C 538.52 312.87 546.54 323.90 550.23 334.77 C 553.92 345.64 560.77 356.38 565.03 366.98 C 569.28 377.57 573.93 389.88 581.00 396.00 Z"/>
</g>
<g fill="#AB49A4" fill-opacity="1.00" stroke="None">
<path d="
M 669.00 370.00 
C 665.53 377.84 660.44 386.51 657.32 394.32 C 654.21 402.13 647.40 410.95 650.00 418.00
C 651.53 410.18 658.07 402.48 660.92 394.92 C 663.77 387.37 668.30 379.24 672.00 372.00
C 679.42 357.49 685.10 342.33 693.00 328.00
C 696.70 321.30 699.82 314.16 704.00 308.00
C 704.03 306.86 705.53 306.28 705.00 305.00
C 688.62 323.70 678.88 347.62 669.00 370.00 Z"/>
</g>
<g fill="#84369F" fill-opacity="1.00" stroke="None">
<path d="
M 812.00 373.00 
C 819.33 371.35 810.89 362.87 809.22 359.78 C 807.56 356.68 800.96 348.91 798.00 347.00
C 772.99 336.62 730.13 339.91 723.00 307.00
C 714.77 312.42 703.40 325.76 712.75 334.25 C 722.11 342.74 729.48 347.84 740.98 352.02 C 752.47 356.21 765.67 358.09 777.33 361.67 C 788.98 365.25 801.08 367.60 812.00 373.00 Z"/>
</g>
<g fill="#77274D" fill-opacity="1.00" stroke="None">
<path d="
M 526.00 323.00 
C 524.65 318.95 522.80 315.64 521.00 312.00
C 522.38 315.83 524.41 319.52 526.00 323.00 Z"/>
</g>
<g fill="#451F39" fill-opacity="1.00" stroke="None">
<path d="
M 581.00 396.00 
C 584.97 404.03 588.79 412.77 593.00 421.00
C 589.26 410.28 584.10 396.89 578.32 385.68 C 572.55 374.47 569.07 360.30 562.31 349.69 C 555.54 339.09 555.07 322.69 546.00 314.00
C 558.93 340.29 567.94 369.59 581.00 396.00 Z"/>
</g>
<g fill="#6C7398" fill-opacity="1.00" stroke="None">
<path d="
M 833.00 316.00 
C 833.00 316.00 832.76 315.31 833.00 315.00
C 826.72 314.43 820.29 315.43 814.00 315.00
C 817.04 317.89 828.56 316.00 833.00 316.00 Z"/>
</g>
<g fill="#391B36" fill-opacity="1.00" stroke="None">
<path d="
M 628.00 396.00 
C 628.84 399.84 631.16 403.19 632.00 407.00
C 637.97 396.91 643.93 385.32 648.00 374.00
C 650.64 366.68 654.64 359.79 658.00 353.00
C 660.01 347.42 662.54 341.33 665.00 336.00
C 653.36 355.65 644.07 380.78 634.00 403.00
C 631.89 401.95 629.25 398.29 628.00 396.00 Z"/>
</g>
<g fill="#8662B2" fill-opacity="1.00" stroke="None">
<path d="
M 812.00 373.00 
C 838.54 386.13 857.10 406.96 854.00 439.00
C 854.48 440.37 860.96 443.78 862.75 446.25 C 864.54 448.72 869.78 455.22 872.00 453.00
C 872.48 450.81 873.63 447.81 874.00 446.00
C 876.22 421.57 872.28 395.76 854.75 378.25 C 837.22 360.73 820.07 354.55 798.00 347.00
C 800.96 348.91 807.56 356.68 809.22 359.78 C 810.89 362.87 819.33 371.35 812.00 373.00 Z"/>
</g>
<g fill="#892D98" fill-opacity="1.00" stroke="None">
<path d="
M 809.00 444.00 
C 807.00 448.48 802.34 452.88 798.00 455.00
C 782.38 466.16 755.82 464.32 739.00 456.00
C 739.69 458.28 737.71 461.91 735.00 461.00
C 734.34 464.07 740.66 465.42 735.00 467.00
C 738.25 468.03 736.87 471.94 741.00 472.00
C 738.80 473.17 736.74 475.40 734.00 474.00
C 737.62 475.65 742.22 477.96 746.00 479.00
C 749.49 479.39 752.42 479.86 756.00 480.00
C 766.93 480.42 778.45 480.51 789.00 479.00
C 810.92 475.87 827.75 460.20 833.00 439.00
C 833.94 431.45 833.41 421.54 830.00 415.00
C 829.83 414.67 829.09 414.25 829.00 414.00
C 830.86 419.03 831.94 424.45 832.00 430.00
C 827.98 407.47 806.70 393.38 786.00 387.00
C 789.19 384.01 793.27 388.47 797.00 388.00
C 763.75 375.00 724.19 373.27 696.00 348.00
C 693.83 354.64 689.89 360.59 687.00 367.00
C 705.84 383.08 736.22 392.42 758.98 397.02 C 781.73 401.63 823.27 412.05 809.00 444.00 Z"/>
</g>
<g fill="#6E2A64" fill-opacity="1.00" stroke="None">
<path d="
M 648.00 374.00 
C 650.06 369.84 653.01 365.51 655.00 361.00
C 656.16 358.36 657.04 355.66 658.00 353.00
C 654.64 359.79 650.64 366.68 648.00 374.00 Z"/>
</g>
<g fill="#42213F" fill-opacity="1.00" stroke="None">
<path d="
M 650.00 418.00 
C 649.82 418.94 650.27 420.09 650.00 421.00
C 659.15 407.11 667.27 386.90 672.00 372.00
C 668.30 379.24 663.77 387.37 660.92 394.92 C 658.07 402.48 651.53 410.18 650.00 418.00 Z"/>
</g>
<g fill="#A22D89" fill-opacity="1.00" stroke="None">
<path d="
M 688.00 387.00 
C 692.64 382.41 687.85 398.80 683.23 404.23 C 678.61 409.66 677.13 422.41 673.08 429.08 C 669.02 435.74 665.30 445.79 662.00 453.00
C 663.16 456.89 677.33 459.83 673.77 466.77 C 670.21 473.71 668.49 477.08 666.00 484.00
C 668.88 478.17 671.94 471.98 675.00 466.00
C 685.24 441.82 697.85 418.53 707.00 394.00
C 700.46 392.71 692.31 380.93 688.00 387.00 Z"/>
</g>
<g fill="#C04B9F" fill-opacity="1.00" stroke="None">
<path d="
M 688.00 387.00 
C 679.86 398.46 673.92 415.00 669.00 428.00
C 661.30 448.36 651.03 468.25 642.00 488.00
C 651.24 478.58 656.42 465.21 662.00 453.00
C 665.30 445.79 669.02 435.74 673.08 429.08 C 677.13 422.41 678.61 409.66 683.23 404.23 C 687.85 398.80 692.64 382.41 688.00 387.00 Z"/>
</g>
<g fill="#9C57B3" fill-opacity="1.00" stroke="None">
<path d="
M 829.00 414.00 
C 824.56 401.56 809.08 391.52 797.00 388.00
C 793.27 388.47 789.19 384.01 786.00 387.00
C 806.70 393.38 827.98 407.47 832.00 430.00
C 831.94 424.45 830.86 419.03 829.00 414.00 Z"/>
</g>
<g fill="#291D34" fill-opacity="1.00" stroke="None">
<path d="
M 833.00 439.00 
C 834.62 432.45 835.89 420.08 830.00 415.00
C 833.41 421.54 833.94 431.45 833.00 439.00 Z"/>
</g>
<g fill="#341A35" fill-opacity="1.00" stroke="None">
<path d="
M 746.00 479.00 
C 742.22 477.96 737.62 475.65 734.00 474.00
C 727.71 471.12 721.12 469.57 716.25 463.75 C 711.38 457.94 706.06 456.14 702.23 448.77 C 698.40 441.40 701.62 437.70 705.78 428.78 C 709.94 419.85 713.44 423.35 717.00 433.00
C 724.01 446.86 738.74 457.42 754.00 460.00
C 746.51 458.09 737.47 454.74 731.25 448.75 C 725.03 442.76 719.63 440.39 716.93 430.07 C 714.22 419.75 707.48 421.07 703.31 431.31 C 699.13 441.54 698.00 446.78 704.75 454.25 C 711.50 461.71 714.87 464.63 722.30 469.70 C 729.74 474.76 737.23 478.02 746.00 479.00 Z"/>
</g>
<g fill="#A02C89" fill-opacity="1.00" stroke="None">
<path d="
M 734.00 474.00 
C 736.74 475.40 738.80 473.17 741.00 472.00
C 736.87 471.94 738.25 468.03 735.00 467.00
C 740.66 465.42 734.34 464.07 735.00 461.00
C 737.71 461.91 739.69 458.28 739.00 456.00
C 729.70 451.40 720.65 442.88 717.00 433.00
C 713.44 423.35 709.94 419.85 705.78 428.78 C 701.62 437.70 698.40 441.40 702.23 448.77 C 706.06 456.14 711.38 457.94 716.25 463.75 C 721.12 469.57 727.71 471.12 734.00 474.00 Z"/>
</g>
<g fill="#3F1D35" fill-opacity="1.00" stroke="None">
<path d="
M 622.00 486.00 
C 622.78 487.72 623.43 489.26 624.00 491.00
C 624.91 493.05 626.75 495.44 627.00 498.00
C 630.33 498.00 633.67 498.00 637.00 498.00
C 638.92 496.62 641.09 489.99 642.00 488.00
C 651.03 468.25 661.30 448.36 669.00 428.00
C 665.07 435.06 661.07 440.95 657.92 448.92 C 654.78 456.90 651.70 462.65 647.92 470.92 C 644.15 479.20 642.82 483.79 637.92 492.92 C 633.03 502.06 625.76 492.40 622.00 486.00 Z"/>
</g>
<g fill="#652668" fill-opacity="1.00" stroke="None">
<path d="
M 739.00 456.00 
C 755.82 464.32 782.38 466.16 798.00 455.00
C 792.39 457.74 785.34 460.50 779.00 461.00
C 770.84 461.65 761.82 461.32 754.00 460.00
C 738.74 457.42 724.01 446.86 717.00 433.00
C 720.65 442.88 729.70 451.40 739.00 456.00 Z"/>
</g>
<g fill="#8D3097" fill-opacity="1.00" stroke="None">
<path d="
M 796.00 497.00 
C 776.34 502.17 752.43 501.22 733.00 495.00
C 735.52 497.40 733.87 499.23 731.00 500.00
C 731.99 502.73 731.54 506.79 735.00 508.00
C 734.69 510.50 732.09 512.22 732.00 514.00
C 776.85 527.61 836.11 517.11 863.00 475.00
C 865.27 471.45 866.74 467.44 869.00 464.00
C 870.45 460.76 871.23 456.54 872.00 453.00
C 869.78 455.22 864.54 448.72 862.75 446.25 C 860.96 443.78 854.48 440.37 854.00 439.00
C 851.01 469.93 824.08 489.61 796.00 497.00 Z"/>
</g>
<g fill="#2E1937" fill-opacity="1.00" stroke="None">
<path d="
M 779.00 461.00 
C 785.34 460.50 792.39 457.74 798.00 455.00
C 802.34 452.88 807.00 448.48 809.00 444.00
C 803.20 453.00 788.27 459.21 779.00 461.00 Z"/>
</g>
<g fill="#2E213E" fill-opacity="1.00" stroke="None">
<path d="
M 872.00 453.00 
C 871.23 456.54 870.45 460.76 869.00 464.00
C 872.75 458.30 873.36 452.98 874.00 446.00
C 873.63 447.81 872.48 450.81 872.00 453.00 Z"/>
</g>
<g fill="#391B39" fill-opacity="1.00" stroke="None">
<path d="
M 863.00 475.00 
C 836.11 517.11 776.85 527.61 732.00 514.00
C 723.13 511.31 714.69 509.11 706.31 504.69 C 697.92 500.28 692.99 496.02 685.25 489.75 C 677.50 483.48 686.53 473.70 689.00 466.00
C 701.05 478.67 716.19 489.52 733.00 495.00
C 752.43 501.22 776.34 502.17 796.00 497.00
C 757.05 503.77 715.50 495.03 689.00 464.00
C 680.78 475.08 677.56 487.40 689.75 495.25 C 701.95 503.09 708.52 507.93 721.78 512.22 C 735.03 516.52 748.79 520.04 763.00 520.00 C 777.21 519.96 795.42 520.12 807.77 515.77 C 820.12 511.42 831.26 507.34 841.25 500.25 C 851.24 493.16 859.06 484.45 863.00 475.00 Z"/>
</g>
<g fill="#3B1B31" fill-opacity="1.00" stroke="None">
<path d="
M 666.00 484.00 
C 664.53 488.09 662.60 491.93 661.00 496.00
C 659.62 499.51 657.61 502.82 656.00 506.00
C 655.12 508.39 654.10 510.39 654.00 513.00
C 659.23 506.50 661.24 496.61 665.23 489.23 C 669.22 481.84 672.95 472.77 675.00 466.00
C 671.94 471.98 668.88 478.17 666.00 484.00 Z"/>
</g>
<g fill="#AE2C81" fill-opacity="1.00" stroke="None">
<path d="
M 732.00 514.00 
C 732.09 512.22 734.69 510.50 735.00 508.00
C 731.54 506.79 731.99 502.73 731.00 500.00
C 733.87 499.23 735.52 497.40 733.00 495.00
C 716.19 489.52 701.05 478.67 689.00 466.00
C 686.53 473.70 677.50 483.48 685.25 489.75 C 692.99 496.02 697.92 500.28 706.31 504.69 C 714.69 509.11 723.13 511.31 732.00 514.00 Z"/>
</g>
<g fill="#732346" fill-opacity="1.00" stroke="None">
<path d="
M 595.00 481.00 
C 596.40 483.85 598.71 487.18 600.00 490.00
C 598.64 485.92 596.94 482.63 595.00 479.00
C 595.17 479.43 594.92 480.51 595.00 481.00 Z"/>
</g>
<g fill="#4F2556" fill-opacity="1.00" stroke="None">
<path d="
M 756.00 480.00 
C 767.20 482.16 777.97 482.21 789.00 479.00
C 778.45 480.51 766.93 480.42 756.00 480.00 Z"/>
</g>
<g fill="#311626" fill-opacity="1.00" stroke="None">
<path d="
M 654.00 514.00 
C 654.00 514.00 653.37 514.22 653.00 514.00
C 650.44 520.92 640.69 519.82 634.00 519.00 C 627.31 518.18 616.35 521.95 612.00 517.00
C 606.84 511.14 602.47 497.41 600.00 490.00
C 598.71 487.18 596.40 483.85 595.00 481.00
C 596.60 490.21 603.06 496.54 605.23 505.77 C 607.40 515.00 616.21 523.38 626.00 520.00 C 635.79 516.62 651.13 526.46 654.00 514.00 Z"/>
</g>
<g fill="#7C2750" fill-opacity="1.00" stroke="None">
<path d="
M 637.00 498.00 
C 633.67 498.00 630.33 498.00 627.00 498.00
C 626.75 495.44 624.91 493.05 624.00 491.00
C 625.83 496.62 629.88 503.13 637.00 498.00 Z"/>
</g>
<g fill="#802C5A" fill-opacity="1.00" stroke="None">
<path d="
M 656.00 506.00 
C 657.61 502.82 659.62 499.51 661.00 496.00
C 659.30 499.19 657.32 502.42 656.00 506.00 Z"/>
</g>
<g fill="#993362" fill-opacity="1.00" stroke="None">
<path d="
M 612.00 517.00 
C 616.35 521.95 627.31 518.18 634.00 519.00 C 640.69 519.82 650.44 520.92 653.00 514.00
C 650.56 512.55 650.79 521.24 643.00 518.00 C 635.21 514.76 618.89 522.60 612.00 517.00 Z"/>
</g>
<g fill="#8A8A8E" fill-opacity="1.00" stroke="None">
<path d="
M 1302.00 661.00 
C 1296.68 668.81 1290.36 682.47 1278.00 683.00
C 1287.58 687.59 1297.41 697.42 1302.00 707.00
C 1303.15 694.62 1316.14 688.66 1324.00 683.00
C 1313.19 681.30 1304.12 671.54 1302.00 661.00 Z"/>
</g>
</svg>